<?xml version="1.0" encoding="utf-8"?>
<!-- Generator: Adobe Illustrator 27.5.0, SVG Export Plug-In . SVG Version: 6.00 Build 0)  -->
<svg version="1.1" xmlns="http://www.w3.org/2000/svg" xmlns:xlink="http://www.w3.org/1999/xlink" x="0px" y="0px"
	 viewBox="0 0 500 500" style="enable-background:new 0 0 500 500;" xml:space="preserve">
<g id="BACKGROUND">
	<g>
		<rect style="fill:#FFFFFF;" width="500" height="500"/>
	</g>
</g>
<g id="OBJECTS">
	<path style="fill:#DFE6EE;" d="M56.726,387.194c-25.261-31.127-32.344-76.012-17.896-113.405
		c10.249-26.525,29.87-48.164,49.071-69.139c22.41-24.48,44.821-48.961,67.231-73.441c19.093-20.856,38.48-41.963,62.32-57.169
		c30.03-19.153,66.53-28.003,101.983-24.575c35.453,3.428,69.625,19.141,95.198,43.934c49.68,48.167,62.349,125.066,48.942,192.951
		c-11.224,56.836-41.202,112.759-91.531,141.451c-30.589,17.438-66.538,23.68-101.748,23.451
		c-32.336-0.211-67.242-3.538-98.23-13.171c-24.857-7.727-51.905-8.831-75.533-19.977C81.218,410.879,67.411,400.36,56.726,387.194z
		"/>
	<g>
		<path style="fill:#FFFFFF;" d="M210.811,267.454c67.941,18.751,139.166,25.548,209.429,19.984
			c-34.075,48.598-69.775,88.899-102.63,138.247c-3.46,5.197-12.864,13.4-18.651,15.747c-4.216,1.71-8.933,1.485-13.476,1.232
			c-14.994-0.833-29.989-1.667-44.983-2.5c-13.174-0.732-26.523-1.487-39.289-5.079c-5.167-1.454-11.364-2.132-11.74-8.101
			c-0.423-6.713,1.954-14.701,2.849-21.387c3.931-29.364,7.861-58.727,11.792-88.091
			C206.345,300.822,208.578,284.138,210.811,267.454z"/>
		<g>
			<path style="fill:#313B59;" d="M447.002,241.236c0.633-0.239,1.295-0.467,1.962-0.394c0.668,0.074,1.345,0.531,1.497,1.234
				c0.181,0.832-0.401,1.622-0.997,2.186c-1.318,1.247-2.893,2.129-4.461,2.978c-4.253,2.303-8.576,4.454-12.962,6.447
				c-0.151-0.647-0.8-2.168-0.598-2.796c0.196-0.611,1.425-1.316,1.892-1.701c1.396-1.15,2.849-2.22,4.35-3.204
				C440.645,244.047,443.763,242.542,447.002,241.236z"/>
			<path style="fill:#313B59;" d="M431.93,235.189c1.169-2.121,2.557-4.241,4.642-5.472c1.008-0.595,2.529-0.842,3.165,0.14
				c0.525,0.811,0.062,1.877-0.403,2.724c-2.784,5.067-5.568,10.134-8.352,15.201c-0.73-0.396-3-1.146-3.352-1.907
				c-0.371-0.803,0.705-2.738,1.004-3.532C429.563,239.873,430.958,237.619,431.93,235.189z"/>
			<path style="fill:#313B59;" d="M419.289,230.046c0.054-0.89,0.143-1.805,0.558-2.594c0.415-0.789,1.233-1.429,2.123-1.375
				c0.839,0.051,1.547,0.706,1.901,1.469c0.354,0.763,0.419,1.623,0.467,2.463c0.285,4.976,0.151,9.966,0.018,14.949
				c-0.002,0.087-3.88,0.628-4.187,0.326c-0.636-0.625-0.479-4.045-0.567-4.963C419.274,236.908,419.08,233.472,419.289,230.046z"/>
			<path style="fill:#313B59;" d="M402.935,236.934c-0.274-0.943-0.487-1.937-0.31-2.904c0.177-0.966,0.826-1.902,1.774-2.157
				c0.828-0.222,1.725,0.111,2.385,0.658c0.66,0.547,1.126,1.287,1.581,2.013c2.89,4.611,5.78,9.222,8.67,13.833
				c-0.902,0.649-1.787,1.332-2.71,1.951c-1.001,0.672-1.223,0.61-2.166-0.144c-1.452-1.161-2.798-2.47-4.011-3.879
				C405.805,243.585,403.925,240.4,402.935,236.934z"/>
			<path style="fill:#7991D1;" d="M411.76,249.903c2.487-3.472,6.54-5.776,10.796-6.136c2.701-0.229,5.563,0.351,7.649,2.082
				c2.425,2.013,3.462,5.244,3.967,8.355c0.621,3.827,0.604,7.822-0.615,11.503c-1.219,3.681-3.731,7.023-7.206,8.743
				c-3.475,1.72-7.924,1.604-11.027-0.721c-3.76-2.818-4.241-7.282-5.606-11.41C408.34,258.154,409.174,253.514,411.76,249.903z"/>
			<path style="fill:#313B59;" d="M410.33,259.948c1.309-0.427,2.728-0.398,4.086-0.171c3.302,0.553,6.393,2.293,8.578,4.829
				c2.185,2.537,3.449,5.851,3.506,9.198c0.028,1.622-0.516,3.598-2.094,3.971c-1.082,0.255-2.154-0.385-3.068-1.017
				c-3.956-2.737-7.641-5.866-10.983-9.326C408.012,265.008,405.853,261.407,410.33,259.948z"/>
			<path style="fill:#7991D1;" d="M398.297,266.391c3.941-2.87,8.491-5.402,13.363-5.234c4.166,0.144,8.172,2.379,10.63,5.746
				c2.459,3.367,3.374,7.776,2.639,11.88c-1.39,7.763-8.039,13.44-14.766,17.556c-7.743,4.738-16.178,8.341-24.954,10.661
				c-4.093,1.082-8.044,0.631-9.728-3.749c-1.051-2.734-1.063-6.53,0.006-9.274c2.546-6.538,7.838-13.221,12.514-18.35
				C391.112,272.214,394.564,269.11,398.297,266.391z"/>
			<path style="fill:#4C5980;" d="M421.837,278.89c-1.739,2.965-3.622,5.717-6.06,8.16c-2.42,2.426-5.158,4.515-8.067,6.321
				c-6.357,3.947-13.438,6.337-20.272,9.284c-0.141,0.061-0.04,0.29,0.104,0.247c7.316-2.21,14.626-5.085,21.095-9.201
				c5.526-3.516,11.071-8.371,13.773-14.476C422.578,278.844,422.058,278.513,421.837,278.89z"/>
			<path style="fill:#4C5980;" d="M414.434,282.939c-0.82,0.616-1.4,1.508-2.082,2.271c-0.709,0.793-1.467,1.533-2.244,2.26
				c-1.574,1.472-3.275,2.779-5.12,3.894c-0.244,0.148-0.028,0.514,0.223,0.382c1.93-1.015,3.755-2.231,5.423-3.638
				c0.83-0.7,1.601-1.482,2.333-2.283c0.706-0.773,1.509-1.583,1.865-2.58C414.907,283.033,414.622,282.798,414.434,282.939z"/>
			<path style="fill:#4C5980;" d="M430.911,251.686c-0.156-0.384-0.674-0.238-0.616,0.17c0.215,1.497,0.558,2.95,0.641,4.467
				c0.074,1.345,0.025,2.699-0.119,4.038c-0.313,2.899-1.194,5.763-2.551,8.341c-0.132,0.251,0.234,0.468,0.382,0.223
				c1.573-2.599,2.583-5.441,2.988-8.453C432.011,257.676,431.985,254.336,430.911,251.686z"/>
		</g>
		<g>
			<path style="fill:#313B59;" d="M221.12,216.5c1.019-0.437,2.228-0.817,3.191-0.269c0.931,0.529,1.249,1.782,0.991,2.821
				c-0.258,1.039-0.968,1.902-1.702,2.681c-3.589,3.806-8.314,6.527-13.408,7.722c-0.785-1.19-1.961-3.135-1.198-4.39
				c0.79-1.3,2.492-2.485,3.659-3.436C215.219,219.539,218.076,217.804,221.12,216.5z"/>
			<path style="fill:#313B59;" d="M200.389,209.621c0.183-1.944,0.54-4.044,1.97-5.373c0.56-0.52,1.363-0.896,2.083-0.641
				c0.878,0.312,1.207,1.363,1.372,2.281c1.016,5.656,0.318,11.463-0.383,17.166c-0.004,0.023-4.155,0.448-4.458,0.299
				c-0.873-0.427-0.675-3.021-0.735-3.962C200.033,216.137,200.083,212.867,200.389,209.621z"/>
			<path style="fill:#313B59;" d="M186.467,210.924c-0.148-0.895-0.245-1.829,0.016-2.698c0.261-0.869,0.963-1.662,1.863-1.774
				c1.285-0.159,2.304,1.022,3.014,2.104c3.145,4.791,5.45,10.131,6.778,15.706c-1.655,0.643-3.23,1.914-4.657,0.528
				c-1.256-1.22-2.339-2.673-3.277-4.146C188.369,217.766,186.893,214.337,186.467,210.924z"/>
			<path style="fill:#313B59;" d="M176.685,224.221c-0.778-0.814-1.52-1.71-1.861-2.783c-0.341-1.073-0.204-2.363,0.6-3.152
				c0.773-0.759,1.996-0.898,3.042-0.618c1.046,0.281,1.956,0.917,2.83,1.557c4.012,2.94,7.773,6.204,11.529,9.465
				c0.06,0.052-0.873,2.56-1.023,2.738c-0.557,0.659-0.892,0.449-1.807,0.249c-1.68-0.367-3.323-0.902-4.899-1.592
				C181.944,228.706,179.061,226.71,176.685,224.221z"/>
			<path style="fill:#7991D1;" d="M190.126,238.35c-1.401-3.543-0.895-7.739,1.162-10.946c2.057-3.207,5.572-5.394,9.333-6.001
				c2.234-0.361,4.646-0.16,6.557,1.054c1.563,0.993,2.674,2.591,3.349,4.315c0.675,1.724,0.945,3.579,1.107,5.424
				c0.147,1.673,0.187,3.449-0.615,4.924c-0.73,1.343-2.052,2.241-3.324,3.087c-1.85,1.23-3.701,2.46-5.552,3.69
				C197.477,246.998,191.945,242.949,190.126,238.35z"/>
			<path style="fill:#313B59;" d="M199.4,240.985c1.429-2.599,3.98-4.556,6.861-5.263c1.726-0.424,3.631-0.392,5.188,0.465
				c1.557,0.857,2.656,2.658,2.35,4.408c-0.307,1.76-1.836,3.008-3.259,4.088c-1.707,1.296-3.43,2.602-5.367,3.519
				c-1.414,0.67-5.484,2.257-6.711,0.609C197.084,246.963,198.442,242.726,199.4,240.985z"/>
			<path style="fill:#7991D1;" d="M201.985,262.647c-2.11-4.464-3.898-9.292-3.506-14.214s3.502-9.921,8.294-11.111
				c3.41-0.847,7.084,0.355,9.898,2.46c2.814,2.105,4.896,5.028,6.778,7.996c6.969,10.993,11.828,23.32,14.234,36.112
				c0.425,2.258,0.75,4.704-0.27,6.763c-5.763,11.632-26.732-13.371-29.83-18.04C205.475,269.435,203.615,266.094,201.985,262.647z"
				/>
			<path style="fill:#4C5980;" d="M225.5,283.728c-1.001-1.254-2.567-2.2-3.773-3.264c-1.252-1.104-2.479-2.241-3.656-3.425
				c-2.382-2.397-4.573-4.983-6.541-7.729c-3.927-5.477-6.885-11.575-9.181-17.898c-0.069-0.191-0.362-0.117-0.308,0.085
				c1.785,6.704,5.003,12.934,9.076,18.536c1.984,2.729,4.177,5.306,6.564,7.692c1.232,1.232,2.513,2.408,3.859,3.515
				c1.147,0.943,2.43,2.18,3.83,2.714C225.509,284.007,225.574,283.82,225.5,283.728z"/>
			<path style="fill:#4C5980;" d="M220.689,272.394c-0.403-0.571-0.992-1.01-1.514-1.469c-0.543-0.476-1.075-0.963-1.591-1.469
				c-1.057-1.037-2.051-2.14-2.973-3.3c-1.86-2.341-3.511-4.899-4.845-7.575c-0.092-0.184-0.414-0.054-0.337,0.142
				c1.118,2.829,2.57,5.452,4.444,7.85c0.936,1.197,1.946,2.337,3.025,3.407c0.995,0.986,2.152,2.297,3.485,2.811
				C220.599,272.874,220.821,272.58,220.689,272.394z"/>
		</g>
		<g>
			<path style="fill:#7991D1;" d="M278.729,407.474c-18.584-16.28-32.832-37.464-40.904-60.814s-9.761-47.8-5.199-72.081
				c0.845-4.498,6.274-8.422,10.631-9.824c4.357-1.402,9.012-1.494,13.588-1.556c26.201-0.351,52.473-0.097,78.494,2.986
				c10.172,1.205,20.453,2.89,29.716,7.263c5.19,2.451,11.451,6.985,15.026,11.475c3.148,25.857-5.132,51.651-19.422,73.43
				c-14.29,21.778-36.465,38.26-61.438,45.665C292.501,406.009,285.651,408.565,278.729,407.474z"/>
			<path style="fill:#313B59;" d="M370.495,313.13c-16.421-6.062-33.406-10.249-50.685-12.993
				c-17.164-2.725-34.606-3.922-51.983-3.562c-4.851,0.1-9.698,0.331-14.538,0.685c-4.855,0.355-9.876,0.595-14.607,1.807
				c-0.516,0.132-0.391,0.912,0.131,0.916c4.348,0.033,8.704-0.596,13.036-0.917c4.274-0.317,8.554-0.533,12.837-0.66
				c8.648-0.257,17.309-0.134,25.944,0.408c17.248,1.083,34.441,3.752,51.185,8.042c9.48,2.428,18.854,5.212,28.099,8.433
				C371.284,315.766,371.828,313.622,370.495,313.13z"/>
			<path style="fill:#313B59;" d="M286.847,298.34c1.81-6.567,8.13-11.62,14.934-11.942c6.804-0.322,13.573,4.111,15.995,10.478
				c2.423,6.366,0.315,14.178-4.982,18.461C300.81,325.027,282.754,313.186,286.847,298.34z"/>
			<path style="fill:#FFD075;" d="M289.729,299.127c1.477-5.359,6.634-9.483,12.187-9.746c5.553-0.263,11.076,3.355,13.053,8.551
				c1.977,5.195,0.257,11.57-4.066,15.066C301.124,320.905,286.389,311.242,289.729,299.127z"/>
			<path style="fill:#FFFFFF;" d="M381.059,287.063c-0.054-0.331-0.604-0.326-0.663,0c-0.274,1.517-0.094,3.203-0.103,4.745
				l-0.029,4.653c-0.01,1.551-0.023,3.102-0.005,4.653c0.01,0.835,0.02,1.67,0.029,2.506c0.007,0.624-0.091,1.268,0.257,1.808
				c0.016,0.024,0.048,0.023,0.064,0c0.355-0.532,0.269-1.188,0.286-1.808l0.071-2.506c0.044-1.551,0.056-3.102,0.072-4.653
				l0.048-4.653C381.102,290.265,381.308,288.584,381.059,287.063z"/>
			<path style="fill:#FFFFFF;" d="M244.438,264.225c-4.91,0.399-8.905,3.827-11.182,8.046c-1.369,2.537-2.101,5.382-2.507,8.221
				c-0.218,1.523-0.356,3.061-0.415,4.599c-0.052,1.367-0.396,3.272,0.105,4.555c0.023,0.06,0.124,0.096,0.157,0.021
				c0.448-1.016,0.27-2.341,0.334-3.441c0.079-1.358,0.168-2.719,0.313-4.072c0.319-2.974,0.939-5.991,2.24-8.703
				c2.068-4.309,6.007-8.019,10.955-8.366C244.988,265.046,244.989,264.18,244.438,264.225z"/>
			<path style="fill:#FFFFFF;" d="M366.533,273.221c-6.169-3.444-13.029-5.243-19.966-6.346c-7.421-1.18-14.947-1.805-22.432-2.429
				c-15.819-1.317-31.691-2.005-47.565-2.051c-8.974-0.026-17.951,0.128-26.91,0.669c-0.36,0.022-0.366,0.574,0,0.565
				c31.123-0.745,62.421-0.455,93.339,3.639c7.983,1.057,15.983,2.778,23.076,6.738
				C366.585,274.291,367.044,273.506,366.533,273.221z"/>
			<path style="fill:#4C5980;" d="M362.707,330.169c-3.7,12.789-9.478,24.863-17.725,35.357
				c-8.057,10.253-18.198,18.784-29.639,25.033c-6.628,3.62-13.616,6.251-20.776,8.599c-0.375,0.123-0.224,0.679,0.163,0.592
				c12.851-2.881,25.116-9.623,35.352-17.788c10.481-8.36,19.162-18.916,25.403-30.778c3.466-6.587,6.21-13.573,7.933-20.819
				C363.527,329.904,362.839,329.712,362.707,330.169z"/>
			<path style="fill:#4C5980;" d="M350.851,341.598c-1.804,3.746-3.323,7.578-5.371,11.212c-2.118,3.759-4.525,7.359-7.193,10.75
				c-5.212,6.626-11.367,12.4-18.232,17.283c-3.876,2.757-7.985,5.169-12.268,7.236c-0.301,0.145-0.038,0.581,0.26,0.445
				c15.528-7.065,28.588-19.053,37.27-33.715c2.394-4.042,4.817-8.43,6.116-12.965C351.532,341.504,351.011,341.265,350.851,341.598
				z"/>
			<path style="fill:#FFFFFF;" d="M299.59,294.504c0.314-0.626,1.025-1.045,1.721-0.964c0.695,0.081,1.307,0.691,1.341,1.39
				c0.023,0.465-0.193,0.924-0.528,1.247c-0.335,0.323-0.778,0.519-1.235,0.61C299.533,297.059,299.066,295.552,299.59,294.504z"/>
			<path style="fill:#FFFFFF;" d="M294.959,299.259c0.025-0.474,0.353-0.927,0.806-1.065s0.999,0.074,1.21,0.499
				c0.14,0.282,0.131,0.626,0.011,0.917c-0.12,0.292-0.342,0.533-0.601,0.714C295.618,300.862,294.918,300.053,294.959,299.259z"/>
		</g>
		<g>
			<g>
				<path style="fill:#313B59;" d="M319.964,160.241c1.427-10.394,5.651-20.391,12.109-28.66c0.508-0.651,1.709,0.043,1.889,0.849
					c0.18,0.806-0.28,1.601-0.705,2.309c-4.696,7.826-7.257,16.919-7.337,26.046C324.101,161.096,321.648,160.997,319.964,160.241z"
					/>
				<path style="fill:#FFD075;" d="M328.645,131.233c-1.156-2.068-1.222-4.666-0.342-6.865c0.88-2.199,2.65-3.992,4.758-5.074
					c2.281-1.171,5.225-1.472,7.31,0.02c1.243,0.89,2.032,2.31,2.417,3.79c0.703,2.704,0.113,5.714-1.558,7.953
					C338.111,135.232,331.492,136.325,328.645,131.233z"/>
				<path style="fill:#EB9921;" d="M341.425,123.581c-0.118-0.376-0.695-0.221-0.592,0.163c0.71,2.657-0.374,5.806-2.686,7.352
					c-1.209,0.809-2.674,1.151-4.119,1.057c-0.722-0.047-1.429-0.219-2.107-0.469c-0.354-0.131-0.686-0.297-1.013-0.484
					c-0.243-0.139-0.42-0.265-0.707-0.207c-0.04,0.008-0.074,0.054-0.072,0.095c0.036,0.645,1.101,1.038,1.601,1.255
					c0.702,0.304,1.456,0.467,2.217,0.531c1.615,0.135,3.302-0.256,4.651-1.165C341.202,129.955,342.361,126.569,341.425,123.581z"
					/>
			</g>
			<g>
				<path style="fill:#7991D1;" d="M247.136,213.281c-0.517-10.484,3.267-20.948,9.579-29.417
					c6.312-8.47,15.035-15.03,24.561-19.788c14.43-7.209,31.163-10.418,47.087-7.552c15.924,2.866,30.848,12.129,39.068,25.829
					c7.082,11.803,8.902,25.972,8.717,39.671c-0.059,4.334-0.364,8.871-2.657,12.574c-2.62,4.231-8.203,7.678-12.895,9.49
					c-15.768,6.09-32.29,6.443-49.191,5.27c-12.165-0.844-21.484-1.189-33.405-3.648c-4.9-1.011-14.503-3.963-18.446-7.031
					c-3.781-2.942-6.088-5.915-8.279-10.119C248.813,223.835,247.397,218.58,247.136,213.281z"/>
				<path style="fill:#313B59;" d="M266.35,217.407c0.423-8.648,1.523-17.263,3.287-25.739c0.745-3.58,1.728-7.349,4.384-9.862
					c3.044-2.88,7.546-3.438,11.72-3.805c21.709-1.906,44.085-2.45,64.751,4.464c2.416,0.808,4.913,1.794,6.54,3.755
					c2.303,2.774,2.295,6.742,2.079,10.34c-0.43,7.157-1.225,14.292-2.382,21.367c-0.814,4.977-2.063,10.362-6.026,13.481
					c-3.072,2.417-7.181,2.972-11.081,3.236c-8.5,0.577-17.036,0.193-25.532-0.441c-10.771-0.805-21.513-2.012-32.194-3.62
					c-3.626-0.546-9.188-0.387-12.233-2.644C266.519,225.606,266.178,220.946,266.35,217.407z"/>
				<path style="fill:#FFFFFF;" d="M293.468,191.845c-2.52-0.245-5.034,1.082-6.72,2.887c-1.906,2.042-2.987,4.74-3.693,7.4
					c-0.158,0.597,0.759,1.035,1.033,0.435c1.669-3.654,3.868-9.308,8.885-8.792c1.928,0.198,3.519,1.62,4.41,3.268
					c0.548,1.013,0.837,2.156,0.96,3.296c0.134,1.248,0.008,2.457,0.053,3.697c0.041,1.123,1.788,1.469,2.04,0.276
					C301.462,199.448,299.167,192.398,293.468,191.845z"/>
				<path style="fill:#FFFFFF;" d="M336.447,200.166c-0.832-2.122-2.314-3.943-4.33-5.042c-4.163-2.271-9.496-1.267-12.406,2.503
					c-1.493,1.934-2.506,4.687-1.836,7.126c0.204,0.74,1.219,0.535,1.279-0.173c0.203-2.413,0.712-4.664,2.444-6.474
					c1.687-1.762,4.096-2.562,6.51-2.294c2.4,0.266,4.58,1.568,5.816,3.658c0.589,0.996,0.97,2.115,1.107,3.265
					c0.145,1.222-0.085,2.255-0.267,3.448c-0.147,0.966,1.206,1.774,1.728,0.729C337.492,204.911,337.241,202.189,336.447,200.166z"
					/>
				<path style="fill:#FFD075;" d="M326.901,217.605c-0.044-0.258-0.313-0.393-0.545-0.415c-2.464-0.227-4.931-0.41-7.402-0.544
					c-1.211-0.066-2.423-0.12-3.635-0.163c-0.583-0.021-1.163-0.03-1.746-0.018c-0.606,0.012-1.263-0.048-1.844,0.135
					c-0.038,0.012-0.055,0.041-0.084,0.06c-0.173-0.002-0.347,0.067-0.466,0.259c-0.623,1.002-1.222,2.016-1.816,3.036
					c-0.296,0.509-0.596,1.018-0.89,1.528c-0.08,0.14-0.165,0.285-0.25,0.432c-0.104-0.547-0.242-1.095-0.337-1.623
					c-0.176-0.979-0.341-1.959-0.497-2.941c-0.15-0.945-0.277-1.893-0.44-2.836c-0.081-0.47-0.16-0.94-0.237-1.41
					c-0.076-0.468-0.107-0.922-0.363-1.332c-0.096-0.154-0.287-0.163-0.406-0.063c-0.082-0.016-0.166-0.016-0.247,0.009
					c-0.301,0.092-0.479,0.323-0.689,0.542c-0.18,0.188-0.334,0.394-0.493,0.6c-0.318,0.411-0.636,0.821-0.954,1.232
					c-0.323,0.417-0.666,0.826-0.956,1.267c-0.17,0.257-0.384,0.557-0.505,0.87c-0.956-0.163-1.965-0.169-2.925-0.245
					c-1.173-0.092-2.345-0.189-3.519-0.275c-1.129-0.083-2.259-0.163-3.388-0.245c-1.084-0.078-2.283-0.296-3.356-0.068
					c-0.387,0.082-0.31,0.593,0,0.71c0.984,0.371,2.187,0.336,3.226,0.42c1.129,0.092,2.259,0.184,3.388,0.275
					c1.129,0.091,2.259,0.171,3.388,0.255c1.106,0.083,2.281,0.285,3.388,0.217c0.222-0.014,0.378-0.165,0.45-0.345
					c0.322-0.179,0.598-0.51,0.829-0.758c0.353-0.378,0.664-0.795,0.987-1.199c0.314-0.393,0.628-0.787,0.942-1.18
					c0.099-0.123,0.19-0.252,0.286-0.377c0.048,0.39,0.112,0.778,0.146,1.126c0.093,0.963,0.237,1.92,0.381,2.876
					c0.142,0.947,0.294,1.893,0.456,2.838c0.161,0.944,0.224,2.033,0.571,2.926c0.114,0.294,0.434,0.403,0.684,0.328
					c0.104,0.018,0.216,0.007,0.32-0.075c0.443-0.353,0.757-0.923,1.056-1.403c0.311-0.501,0.618-1.005,0.927-1.507
					c0.618-1.005,1.228-2.012,1.817-3.035c0.013-0.023,0.013-0.045,0.023-0.068c0.41,0.067,0.843,0.062,1.25,0.092
					c0.631,0.046,1.259,0.078,1.891,0.101c1.212,0.043,2.424,0.098,3.635,0.164c2.47,0.134,4.938,0.318,7.402,0.544
					c0.259,0.024,0.465-0.195,0.545-0.415C326.939,217.799,326.919,217.714,326.901,217.605z"/>
				<path style="fill:#4C5980;" d="M365.194,236.094c-3.811,2.098-7.643,3.981-11.775,5.378c-4.081,1.38-8.287,2.372-12.538,3.055
					c-9.113,1.464-18.398,1.468-27.591,0.948c-5.397-0.305-10.786-0.765-16.189-0.952c-0.176-0.006-0.223,0.287-0.042,0.314
					c9.518,1.421,19.214,2.118,28.839,1.973c8.944-0.134,17.935-1.203,26.483-3.918c4.594-1.459,9.235-3.348,13.297-5.971
					C366.193,236.588,365.737,235.795,365.194,236.094z"/>
				<path style="fill:#4C5980;" d="M291.144,243.379c-1.102-0.2-2.261-0.176-3.376-0.302c-1.133-0.128-2.261-0.302-3.381-0.518
					c-1.074-0.207-2.145-0.44-3.206-0.708c-1.117-0.283-2.266-0.798-3.4-0.955c-0.298-0.041-0.514,0.338-0.218,0.516
					c0.924,0.557,2.14,0.809,3.171,1.111c1.131,0.332,2.273,0.618,3.43,0.845c1.111,0.218,2.23,0.393,3.353,0.529
					c1.135,0.138,2.381,0.357,3.522,0.254C291.446,244.115,291.613,243.465,291.144,243.379z"/>
				<path style="fill:#FFFFFF;" d="M270.387,170.035c-13.107,7.941-21.948,21.786-23.41,37.072
					c-0.446,4.658-0.335,9.528,0.801,14.083c0.11,0.443,0.72,0.241,0.663-0.183c-1.088-8.088-0.955-16.011,1.554-23.85
					c2.255-7.047,6.2-13.505,11.376-18.785c2.839-2.896,6.031-5.408,9.499-7.509C271.396,170.543,270.916,169.715,270.387,170.035z"
					/>
				<path style="fill:#FFFFFF;" d="M359.656,171.717c-18.125-15.694-43.812-20.682-66.503-13.3c-3.145,1.023-6.22,2.27-9.191,3.725
					c-2.927,1.434-5.948,3.003-8.445,5.128c-0.263,0.224,0.072,0.613,0.355,0.463c2.625-1.392,5.103-3.043,7.76-4.387
					c2.617-1.324,5.317-2.478,8.08-3.456c5.561-1.968,11.371-3.235,17.247-3.73c11.461-0.966,23.081,1.066,33.583,5.774
					c5.963,2.673,11.489,6.199,16.511,10.391C359.471,172.674,360.076,172.081,359.656,171.717z"/>
			</g>
		</g>
	</g>
	<g>
		<g>
			<g>
				<path style="fill:#B345B5;" d="M156.025,420.141c0.815,0.027-2.423,0.594-1.608,0.62c-26.261,3.805-53.479,2.195-79.123-4.627
					c-8.622-26.157-10.523-54.433-7.192-81.772c9.4-5.759,19.664-10.106,30.341-12.849c8.819-2.267,18.321-3.527,27.286-1.932
					c8.5,1.512,17.131,3.324,24.478,7.858c1.95,10.913,4.42,21.702,6.371,32.616C160.09,379.704,157.341,400.222,156.025,420.141z"
					/>
				<path style="fill:#FFFFFF;" d="M142.122,327.292c0.434-1.051,0.743-2.236,0.827-3.394c-5.498-2.101-11.39-3.28-17.221-4.318
					c-8.965-1.595-18.466-0.334-27.286,1.932c-2.377,0.611-4.729,1.314-7.059,2.081c-0.171,1.665,1.304,3.659,2.717,5.52
					c2.871,3.781,6.485,7.019,10.657,9.303c6.431,3.52,14.21,4.69,21.28,2.749C133.107,339.223,139.327,334.069,142.122,327.292z"/>
			</g>
			<path style="fill:#D66EC0;" d="M89.327,357.194c-1.054-4.833-3.523-9.374-6.663-13.167c-1.587-1.917-3.39-3.663-5.367-5.175
				c-1.82-1.393-4.144-3.094-6.41-3.605c-0.384-0.087-0.549,0.386-0.256,0.606c0.946,0.709,2.067,1.185,3.073,1.812
				c1.012,0.631,1.98,1.324,2.923,2.055c1.89,1.465,3.624,3.121,5.163,4.952c3.15,3.748,5.256,8.094,6.613,12.777
				C88.576,358.043,89.458,357.794,89.327,357.194z"/>
			<g>
				<path style="fill:#B345B5;" d="M148.198,327.107c0.678-0.402,1.582-0.209,2.214,0.261c0.632,0.47,1.051,1.167,1.444,1.85
					c4.019,6.999,7.025,14.578,8.896,22.43c1.565,6.569,2.752,13.103,3.732,19.784c1.662,11.326,3.324,22.653,4.985,33.979
					c0.093-0.206,8.802,5.639,13.005,8.896c3.66,2.835,7.35,5.69,11.499,7.743c-0.195,1.886-0.573,3.881-1.155,5.685
					c-0.583,1.804-1.586,3.526-3.117,4.645c-1.159,0.846-2.552,1.304-3.936,1.685c-8.036,2.211-16.659,2.245-24.712,0.099
					c-3.417-0.911-7.03-2.467-8.599-5.636c-0.899-1.816-0.99-3.915-1.009-5.941c-0.05-5.165,0.25-10.333,0.898-15.457
					c2.747-21.738-2.756-43.938-4.064-65.811C148,336.637,148.478,331.788,148.198,327.107z"/>
				<path style="fill:#D66EC0;" d="M157.481,364.14c-0.029-0.327-0.54-0.333-0.516,0c0.566,7.859,0.745,15.738,0.6,23.616
					c-0.146,7.898-1.004,15.702-1.516,23.573c-0.023,0.354,0.566,0.442,0.627,0.085c1.304-7.667,1.554-15.636,1.699-23.401
					C158.525,380.045,158.191,372.076,157.481,364.14z"/>
				<path style="fill:#D66EC0;" d="M154.166,345.887c-0.95-4.968-1.845-9.946-2.74-14.925c-0.053-0.295-0.503-0.17-0.45,0.124
					c0.876,4.897,1.753,9.794,2.575,14.7c0.82,4.893,1.488,9.853,2.644,14.681c0.072,0.302,0.594,0.246,0.555-0.075
					C156.161,355.523,155.087,350.702,154.166,345.887z"/>
			</g>
			<g>
				<path style="fill:#FFFFFF;" d="M167.378,423.082c3.129-0.157,6.197-1.36,8.598-3.373c0.512-0.43,1.012-0.921,1.227-1.554
					c0.215-0.633-0.06-1.485-0.634-1.827c-4.953,1.662-10.425,1.741-15.424,0.222C161.986,419.56,164.376,422.209,167.378,423.082z"
					/>
				<path style="fill:#FFFFFF;" d="M135.976,413.152c7.707-2.441,16.271-2.073,23.74,1.021c4.458,1.847,8.05,5.306,11.784,8.362
					c3.734,3.056,7.003,6.818,8.818,11.289c-16.769,0.466-33.636,0.554-50.389-0.312
					C129.082,426.342,131.141,418.514,135.976,413.152z"/>
				<path style="fill:#B345B5;" d="M89.492,373.421c-8.061,14.015-16.155,27.983-24.215,41.997
					c23.671-0.779,47.318-1.895,70.989-2.673c-4.052,6.013-6.63,13.61-6.38,20.856c-25.4,3.218-51.379,5.399-76.912,7.293
					c-6.233-4.674-11.266-10.94-14.378-18.082c7.898-30.083,17.762-59.651,29.507-88.451c7.369,3.101,14.06,8.348,17.84,15.392
					C89.723,356.798,93.478,366.491,89.492,373.421z"/>
				<path style="fill:#D66EC0;" d="M90.881,371.306c0.505-1.403,0.724-2.955,0.756-4.404c0.045-2.035-0.251-4.07-0.857-6.012
					c-0.131-0.421-0.782-0.246-0.663,0.183c0.515,1.866,0.734,3.791,0.637,5.726c-0.081,1.63-0.399,3.176-0.722,4.751
					c-5.846,10.093-11.923,20.092-17.447,30.364c-0.21,0.39,0.36,0.724,0.594,0.347C79.374,392.291,90.995,371.434,90.881,371.306z"
					/>
				<path style="fill:#D66EC0;" d="M62.46,415.693c-0.523-0.052-1.093,0.094-1.61,0.176c-0.504,0.079-1.006,0.167-1.507,0.264
					c-1.037,0.201-2.067,0.439-3.087,0.713c-1.016,0.273-2.04,0.565-3.027,0.933c-0.438,0.163-0.868,0.355-1.296,0.542
					c-0.463,0.202-1.024,0.365-1.377,0.738c-0.109,0.116-0.032,0.313,0.13,0.314c0.453,0.005,0.877-0.219,1.3-0.365
					c0.481-0.165,0.968-0.311,1.451-0.471c1.004-0.333,2-0.673,3.02-0.957c0.982-0.273,1.974-0.511,2.973-0.715
					c0.499-0.102,1-0.195,1.503-0.28c0.525-0.088,1.109-0.103,1.607-0.288C62.873,416.173,62.809,415.728,62.46,415.693z"/>
				<path style="fill:#D66EC0;" d="M133.245,412.61c-9.571,0.312-19.141,0.646-28.711,0.987c-4.698,0.167-9.396,0.318-14.094,0.473
					c-2.436,0.08-4.872,0.161-7.308,0.241c-2.234,0.074-4.64-0.062-6.835,0.38c-0.223,0.045-0.138,0.337,0.049,0.362
					c2.368,0.31,4.924-0.019,7.308-0.101c2.262-0.078,4.524-0.155,6.786-0.233c4.785-0.164,9.57-0.332,14.355-0.484
					c9.484-0.301,18.967-0.609,28.45-0.938C133.687,413.282,133.689,412.595,133.245,412.61z"/>
			</g>
			<g>
				<path style="fill:#FFFFFF;" d="M100.274,324.245c-1.171-6.904-2.342-13.807-3.514-20.711c-0.175-1.031-0.23-2.337,0.677-2.857
					c0.518-0.297,1.163-0.202,1.751-0.098c2.678,0.473,5.357,0.947,8.035,1.42c2.666,0.471,5.708-0.492,8.384-0.08
					c2.676,0.411,5.342,1.684,6.826,3.949c0.787,1.2,1.199,2.601,1.602,3.979c1.242,4.254,2.484,8.509,3.727,12.763
					c-3.777,3.102-8.602,5.143-13.477,5.496C109.41,328.458,104.459,326.772,100.274,324.245z"/>
				<path style="fill:#FFFFFF;" d="M91.585,297.011c6.207,8.778,17.204,13.93,27.922,13.081c2.013-0.16,3.466-1.636,4.681-3.25
					c3.89-5.165,6.382-8.031,7.768-14.347c0.881-4.012-1.586-10.867-4.396-13.863c-0.187-5.846-1.341-11.863-3.165-17.421
					c-6.951-3.035-15.246-3.663-22.42-1.197c-7.173,2.466-13.282,8.224-15.565,15.457C84.129,282.705,87.206,290.818,91.585,297.011
					z"/>
				<path style="fill:#DFE6EE;" d="M125.044,304.652c-2.314,5.333-7.229,5.214-12.263,4.432c-3.996-0.62-8.343-0.952-11.719-3.364
					c-0.05-0.036-0.113,0.045-0.066,0.086c3.978,3.499,9.445,4.629,14.623,4.737c3.739,0.078,9.419-1.153,9.687-5.82
					C125.313,304.589,125.1,304.522,125.044,304.652z"/>
				<path style="fill:#313B59;" d="M96.662,302.502c-3.818-6.483-5.135-14.396-3.623-21.766c0.643-3.136,1.654-6.272,3.635-8.786
					c3.862-0.718,7.176-3.731,8.076-7.555c5.508,2.443,12.034,2.381,17.739,0.441c5.704-1.94,10.626-6.089,13.503-11.383
					c2.312-4.255,3.219-9.737,0.637-13.834c-1.511-2.398-4.052-4.025-6.76-4.86c-2.709-0.836-5.591-0.942-8.422-0.807
					c-12.936,0.615-24.747,7.07-33.74,16.389c-7.91,3.752-11.936,9.021-12.428,16.276c-0.491,7.255,2.211,14.418,6.075,20.578
					C85.193,293.315,90.817,298.256,96.662,302.502z"/>
				<path style="fill:#FFFFFF;" d="M92.536,284.659c-0.742-0.837-2.08-0.994-3.082-0.497c-1.002,0.497-1.663,1.544-1.866,2.644
					c-0.203,1.1,0.007,2.244,0.409,3.288c1.441,3.751,5.533,6.297,9.534,5.932C96.575,291.987,95.29,287.764,92.536,284.659z"/>
				<path style="fill:#313B59;" d="M91.328,279.371c0.643,6.131,4.152,11.901,9.301,15.291c0.835-1.187,0.148-3.087-0.215-4.448
					c-1.949-7.314-3.914-14.766-3.579-22.328c0.03-0.688-0.536-1.441-1.191-1.654c-0.655-0.213-1.393,0.005-1.941,0.422
					c-0.548,0.417-0.935,1.008-1.266,1.612C90.606,271.607,90.931,275.583,91.328,279.371z"/>
				<path style="fill:#4C5980;" d="M112.399,294.486c2.843,1.938,6.6,2.467,9.868,1.39c-0.902,1.634-1.99,3.333-3.731,4.005
					c-1.489,0.575-3.287,0.252-4.482-0.807C112.859,298.015,112.009,296.034,112.399,294.486z"/>
				<path style="fill:#4C5980;" d="M119.157,290.181c0.928-0.342,1.856-0.684,2.785-1.026c-0.195,0.383-0.441,0.799-0.752,1.096
					c-0.311,0.297-0.716,0.513-1.145,0.529C119.615,290.797,119.362,290.56,119.157,290.181z"/>
				<path style="fill:#313B59;" d="M109.199,280.303c0.019-0.241,0.062-0.485,0.177-0.698s0.309-0.392,0.546-0.442
					c0.262-0.056,0.539,0.055,0.738,0.234c0.199,0.18,0.331,0.421,0.441,0.665c0.264,0.586,0.423,1.218,0.468,1.859
					c0.059,0.834-0.546,1.831-1.418,1.151C109.404,282.489,109.131,281.191,109.199,280.303z"/>
				<path style="fill:#313B59;" d="M119.493,277.768c0.019-0.241,0.062-0.485,0.177-0.698c0.115-0.213,0.31-0.392,0.546-0.443
					c0.262-0.056,0.539,0.055,0.738,0.234s0.331,0.421,0.441,0.665c0.264,0.586,0.423,1.218,0.468,1.859
					c0.059,0.834-0.546,1.831-1.418,1.151C119.698,279.954,119.424,278.656,119.493,277.768z"/>
				<path style="fill:#313B59;" d="M116.917,273.209c-0.008-0.177-0.016-0.355-0.025-0.533c1.285-1.023,3.051-1.443,4.662-1.126
					c0.201,0.366-0.607,0.377-0.959,0.433C119.323,272.187,118.002,272.515,116.917,273.209z"/>
				<path style="fill:#313B59;" d="M110.744,273.736c-0.06-0.167-0.119-0.335-0.179-0.502c-1.576-0.46-3.37-0.181-4.742,0.722
					c-0.047,0.414,0.705,0.12,1.051,0.038C108.13,273.7,109.477,273.503,110.744,273.736z"/>
				<path style="fill:#4C5980;" d="M134.495,241.845c-1.253-2.927-4.842-4.48-7.806-4.922c-3.85-0.574-7.817,0.31-11.515,1.34
					c-7.146,1.991-14.501,5.327-20.006,10.392c-0.112,0.103,0.034,0.296,0.164,0.212c5.965-3.849,11.927-7.311,18.788-9.339
					c3.524-1.042,7.297-1.968,10.995-1.779c1.753,0.09,3.507,0.478,5.074,1.286c1.538,0.794,2.628,1.956,3.747,3.24
					C134.225,242.608,134.641,242.185,134.495,241.845z"/>
				<path style="fill:#4C5980;" d="M126.796,243.479c-1.285-0.743-3.175-0.831-4.633-0.943c-1.728-0.133-3.466-0.069-5.183,0.164
					c-3.316,0.451-6.427,1.579-9.254,3.37c-0.213,0.135-0.024,0.462,0.198,0.339c2.875-1.587,6.102-2.647,9.368-3.023
					c1.563-0.18,3.145-0.206,4.713-0.081c0.802,0.064,1.6,0.164,2.391,0.308c0.746,0.136,1.49,0.403,2.25,0.415
					C126.941,244.033,127.047,243.624,126.796,243.479z"/>
			</g>
		</g>
		<g>
			<path style="fill:#313B59;" d="M151.071,436.802c1.458,0.408,2.911,0.83,4.356,1.279c30.989,9.633,65.911,12.115,98.23,13.171
				c60.233,1.968,90.885-10.345,95.986-12.835C295.008,435.164,205.759,434.631,151.071,436.802z"/>
			<g>
				<path style="fill:#BFCAD4;" d="M211.993,369.959c-9.813,21.235-19.786,42.603-29.599,63.839c-3.697,0.043-7.462-0.103-11.157,0
					c-2.293,0.064-28.887,0.09-31.953,0.092c4.686,1.039,9.335,2.19,13.919,3.539c27.956,0.255,56.048,0.675,83.951,0.864
					c18.48,0.126,37.366,0.214,55.846,0.259c10.211-21.329,21.058-43.346,31.269-64.675c-0.812-1.397-1.655-3.005-2.467-4.402
					C285.338,369.553,248.456,369.88,211.993,369.959z"/>
				<path style="fill:#A1B0BA;" d="M183.762,437.747c17.819,0.208,35.645,0.425,53.393,0.545c18.48,0.126,37.366,0.214,55.846,0.259
					c10.211-21.329,21.058-43.346,31.269-64.675c-0.148-0.254-0.297-0.521-0.447-0.787c-36.431,0.115-73.062,0.119-109.48,0.242
					C204.149,394.803,193.955,416.276,183.762,437.747z"/>
				<path style="fill:#FFFFFF;" d="M255.26,401.568c1.773-1.567,4.238-2.321,6.584-2.016c1.686,0.22,3.385,1.052,4.207,2.54
					c0.701,1.271,0.669,2.83,0.324,4.24c-0.493,2.018-1.623,3.913-3.308,5.128c-1.685,1.215-3.941,1.684-5.913,1.033
					C251.945,410.773,251.453,404.931,255.26,401.568z"/>
			</g>
		</g>
	</g>
	<g>
		<path style="fill:#D66EC0;" d="M232.293,235.903c-25.84-0.667-51.969-1.646-77.756,0.125c0.023,11.467,0.047,24.908,0.07,36.374
			c-5.07,4.045-9.876,8.422-14.34,13.128l22.85-9.19c22.91-0.91,44.631-0.103,67.462-0.309
			C231.019,263.325,232.324,248.617,232.293,235.903z"/>
		<g>
			<g>
				<path style="fill:#FFFFFF;" d="M222.751,247.899c0,0-0.002,0-0.003,0c0.168-0.228,0.064-0.462,0.074-0.691
					c0.011-0.239,0.008-0.479,0.015-0.718c0.013-0.478,0.04-0.957,0.055-1.435c0.008-0.269,0.018-0.538,0.014-0.807
					c0-0.015-0.104-0.024-0.216-0.025c-0.043-0.003-0.093-0.006-0.159-0.006c-7.228-0.02-14.459-0.026-21.689-0.034
					c-7.194-0.008-14.391-0.004-21.585,0.002c-4.075,0.004-8.154,0.003-12.227,0.018c-0.137,0.001-0.223,0.009-0.26,0.02
					c-0.102,0.002-0.192,0.01-0.192,0.024c-0.049,0.957-0.004,1.914-0.021,2.871c-0.002,0.131,0.002,0.262,0.005,0.393
					c0.003,0.138-0.048,0.277,0.061,0.415c0.012,0.015,0.177,0.018,0.246,0.008c0.017,0.001,0.032,0.001,0.052,0.002
					c1.79,0.023,3.611,0.022,5.412,0.028c1.839,0.006,3.679,0.01,5.519,0.014c3.609,0.008,7.218,0.015,10.827,0.018
					c7.254,0.006,14.509,0.005,21.763-0.009c4.104-0.008,7.544-0.025,11.647-0.029C222.434,247.955,222.706,247.951,222.751,247.899
					z"/>
			</g>
			<g>
				<path style="fill:#FFFFFF;" d="M206.929,257.538c0,0-0.002,0-0.002,0c0.121-0.228,0.046-0.462,0.053-0.691
					c0.008-0.239,0.006-0.478,0.01-0.718c0.01-0.478,0.029-0.957,0.039-1.435c0.006-0.269,0.013-0.538,0.01-0.807
					c0-0.015-0.074-0.024-0.155-0.025c-0.031-0.003-0.067-0.006-0.115-0.006c-5.194-0.02-10.389-0.026-15.583-0.034
					c-5.169-0.008-10.34-0.004-15.508,0.002c-2.928,0.004-5.858,0.003-8.785,0.018c-0.099,0.001-0.16,0.009-0.187,0.02
					c-0.074,0.002-0.138,0.01-0.138,0.024c-0.036,0.957-0.003,1.914-0.015,2.871c-0.002,0.131,0.002,0.261,0.003,0.392
					c0.002,0.138-0.035,0.278,0.044,0.415c0.009,0.015,0.127,0.018,0.177,0.008c0.012,0.001,0.023,0.001,0.037,0.002
					c1.286,0.023,2.594,0.022,3.888,0.028c1.322,0.006,2.643,0.01,3.965,0.014c2.593,0.008,5.186,0.015,7.779,0.018
					c5.212,0.006,10.425,0.005,15.636-0.009c2.948-0.008,5.42-0.025,8.368-0.029C206.702,257.595,206.897,257.591,206.929,257.538z"
					/>
			</g>
			<g>
				<path style="fill:#FFFFFF;" d="M214.664,267.178c0,0-0.002,0-0.003,0c0.144-0.228,0.054-0.462,0.063-0.691
					c0.009-0.239,0.007-0.478,0.012-0.718c0.011-0.478,0.034-0.957,0.047-1.435c0.007-0.269,0.016-0.538,0.012-0.807
					c0-0.015-0.089-0.024-0.185-0.025c-0.037-0.003-0.08-0.006-0.136-0.006c-6.188-0.02-12.378-0.026-18.568-0.034
					c-6.159-0.008-12.32-0.004-18.479,0.002c-3.489,0.004-6.981,0.003-10.468,0.018c-0.118,0-0.191,0.009-0.222,0.02
					c-0.088,0.002-0.164,0.01-0.165,0.024c-0.042,0.957-0.003,1.914-0.018,2.871c-0.002,0.131,0.002,0.262,0.004,0.392
					c0.002,0.138-0.042,0.278,0.052,0.415c0.01,0.016,0.152,0.018,0.21,0.008c0.014,0.001,0.027,0.001,0.044,0.002
					c1.532,0.023,3.091,0.022,4.633,0.028c1.575,0.006,3.15,0.01,4.725,0.014c3.089,0.008,6.179,0.015,9.27,0.018
					c6.21,0.006,12.422,0.005,18.631-0.009c3.513-0.008,6.458-0.025,9.971-0.029C214.393,267.234,214.625,267.23,214.664,267.178z"
					/>
			</g>
		</g>
	</g>
	<g>
		<path style="fill:#EB9921;" d="M245.227,190.49c-3.496-4.867-6.991-9.733-10.487-14.6c-0.241-0.336-0.493-0.675-0.753-1.009
			c0.192-23.748,0.383-47.495,0.575-71.243c0.025-3.044-0.57-7.49-3.612-7.593c-34.818-1.177-69.666-1.462-104.497-0.797
			c-3.503,0.067-7.75,0.717-9.725,3.612c-0.226,26.864-0.451,53.729-0.677,80.593c1.031,2.974,10.291,2.576,15.825,2.551
			c29.005-0.127,58.01-0.253,87.016-0.38c1.118,0.583,2.227,1.06,2.862,1.422c6.499,3.704,13.12,7.179,19.833,10.48
			c0.77,0.376,1.572,0.757,2.428,0.775c0.857,0.019,1.786-0.43,2.047-1.247C246.346,192.165,245.772,191.249,245.227,190.49z"/>
		<path style="fill:#FFFFFF;" d="M215.723,142.64c0.552,2.587,1.104,5.173,1.655,7.759c0.243,1.137,1.932,0.656,1.69-0.481
			c-0.516-2.418-1.032-4.836-1.548-7.254c2.34,0.031,4.681,0.062,7.022,0.093c1.128,0.015,1.129-1.795,0-1.81
			c-2.47-0.033-4.939-0.066-7.409-0.099c-0.288-1.352-0.577-2.704-0.865-4.056c-0.181-0.849-1.527-0.878-1.69,0
			c-0.247,1.337-0.491,2.674-0.737,4.012c-1.028-0.014-2.057-0.028-3.085-0.041c-2.741-9.358-5.492-18.713-8.168-28.09
			c-0.256-0.896-1.371-0.62-1.474,0.206c-1.15,9.236-2.294,18.472-3.43,27.709c-0.036-0.001-0.073-0.001-0.109-0.001
			c-0.261-1.257-0.522-2.514-0.783-3.771c-0.158-0.763-1.448-0.826-1.556,0c-0.164,1.256-0.381,2.497-0.622,3.732
			c-1.557-0.021-3.114-0.042-4.671-0.063c-0.275-1.275-0.5-2.565-0.663-3.871c-0.108-0.87-1.349-1.221-1.597-0.223
			c-0.336,1.35-0.67,2.7-1.005,4.05c-1.784-0.024-3.568-0.048-5.352-0.072c-0.559-2.097-1.122-4.192-1.677-6.29
			c-0.255-0.964-1.465-0.653-1.57,0.219c-0.242,2.005-0.477,4.012-0.716,6.018c-0.372-0.005-0.743-0.01-1.115-0.015
			c-1.276-0.017-2.552-0.034-3.828-0.051c-0.913-7.749-1.826-15.498-2.71-23.251c-0.085-0.747-1.27-1.102-1.412-0.197
			c-1.221,7.781-2.44,15.563-3.662,23.344c-0.495-0.007-0.989-0.013-1.484-0.02c-0.61-2.507-1.22-5.015-1.831-7.522
			c-0.18-0.739-1.21-0.697-1.41,0c-0.713,2.484-1.425,4.967-2.138,7.45l-2.543-0.034c-0.836-2.851-1.673-5.702-2.505-8.554
			c-0.215-0.737-1.183-0.7-1.414,0c-0.917,2.781-1.655,5.603-2.241,8.459c-0.166-0.003-0.333-0.007-0.5-0.011
			c-0.985-8.695-2.289-17.35-3.797-25.965c-0.119-0.682-1.255-0.704-1.355,0c-1.24,8.669-2.864,17.26-4.843,25.768
			c-1.762-0.023-3.524-0.031-5.285-0.019c-0.07-0.011-0.14-0.009-0.211,0.002c-1.71,0.014-3.42,0.045-5.126,0.112
			c-0.945,0.037-0.936,1.448,0,1.509c1.569,0.103,3.142,0.174,4.716,0.232c0.814,3.977,1.659,7.947,2.506,11.917
			c0.169,0.793,1.295,0.732,1.496,0c1.072-3.898,2.06-7.82,2.978-11.758c2.552,0.027,5.104,0.034,7.653,0.047
			c0.202,1.956,0.4,3.912,0.577,5.87c0.09,0.993,1.392,0.987,1.492,0c0.199-1.968,0.493-3.915,0.848-5.849
			c0.553,0.005,1.107,0.009,1.66,0.016c0.781,0.01,1.562,0.021,2.343,0.031c0.531,1.818,1.063,3.635,1.593,5.453
			c0.21,0.721,1.215,0.728,1.423,0c0.514-1.798,1.028-3.595,1.543-5.393c1.104,0.015,2.208,0.029,3.312,0.044l1.417,5.798
			c0.165,0.676,1.28,0.749,1.397,0c0.299-1.917,0.6-3.833,0.9-5.749c1.752,0.023,3.504,0.046,5.256,0.07
			c0.966,8.738,1.94,17.475,2.971,26.205c0.127,1.073,1.498,1.079,1.622,0c1-8.705,2.05-17.403,3.087-26.104
			c0.467,0.006,0.935,0.012,1.402,0.019c1.073,4.027,2.146,8.054,3.216,12.082c0.208,0.782,1.351,0.799,1.551,0
			c0.996-3.993,1.992-7.986,2.986-11.98c0.278,0.004,0.555,0.007,0.833,0.011c0.752,3.026,1.781,5.964,3.134,8.807
			c0.34,0.714,1.248,0.404,1.48-0.2c1.068-2.782,1.896-5.621,2.53-8.513c0.143,0.002,0.286,0.004,0.429,0.006
			c0.254,1.221,0.508,2.441,0.762,3.662c0.207,0.996,1.477,0.632,1.581-0.221c0.138-1.135,0.272-2.27,0.41-3.404
			c3.497,0.046,6.993,0.092,10.49,0.139c0.821,2.895,1.638,5.791,2.464,8.684c0.228,0.798,1.503,0.905,1.672,0
			c0.536-2.869,1.064-5.739,1.594-8.609C215.424,142.636,215.573,142.638,215.723,142.64 M136,150.008
			c-0.62-2.803-1.248-5.604-1.888-8.403c1.332,0.04,2.666,0.065,4,0.084C137.445,144.471,136.743,147.245,136,150.008z
			 M140.105,139.735c1.594-7.044,2.947-14.145,4.053-21.289c1.226,7.109,2.18,14.26,2.952,21.436
			C144.777,139.83,142.441,139.774,140.105,139.735z M152.322,139.98c-0.581-0.008-1.162-0.019-1.744-0.03
			c0.404-1.925,0.868-3.837,1.422-5.728c0.564,1.925,1.125,3.851,1.688,5.776C153.232,139.992,152.777,139.986,152.322,139.98z
			 M156.519,144.421c-0.252-0.858-0.502-1.716-0.754-2.574c0.496,0.007,0.991,0.013,1.487,0.02
			C157.008,142.718,156.763,143.57,156.519,144.421z M159.299,140.073c0.421-1.47,0.841-2.941,1.262-4.411l1.085,4.442
			C160.863,140.094,160.081,140.083,159.299,140.073z M164.056,143.841c-0.153-0.63-0.307-1.26-0.46-1.89
			c0.252,0.003,0.503,0.007,0.755,0.01C164.252,142.587,164.154,143.214,164.056,143.841z M166.089,140.164
			c0.928-5.934,1.856-11.868,2.786-17.802c0.67,5.954,1.327,11.91,1.985,17.866C169.27,140.206,167.679,140.185,166.089,140.164z
			 M174.866,161.29c-0.727-6.409-1.482-12.814-2.235-19.22c1.206,0.016,2.411,0.032,3.617,0.048c0.3,0.004,0.599,0.008,0.899,0.012
			C176.387,148.516,175.632,154.904,174.866,161.29z M178.958,140.336c0.072-0.604,0.144-1.207,0.216-1.811
			c0.162,0.607,0.323,1.214,0.484,1.82C179.425,140.342,179.191,140.339,178.958,140.336z M184.107,150.798
			c-0.767-2.868-1.529-5.738-2.295-8.607c1.472,0.019,2.945,0.039,4.417,0.058C185.522,145.099,184.813,147.949,184.107,150.798z
			 M192.484,148.511c-0.857-2.018-1.559-4.089-2.11-6.207c1.287,0.017,2.575,0.034,3.862,0.051
			C193.761,144.437,193.182,146.49,192.484,148.511z M199.274,140.608c0.969-7.992,1.931-15.984,2.889-23.977
			c2.316,8.028,4.59,16.068,6.867,24.108C205.777,140.695,202.525,140.652,199.274,140.608z M212.655,147.252
			c-0.454-1.558-0.912-3.114-1.368-4.671c0.74,0.01,1.48,0.02,2.22,0.029C213.224,144.158,212.939,145.705,212.655,147.252z"/>
	</g>
	<g>
		<path style="fill:#D66EC0;" d="M449.036,200.748c0.712-13.22,1.195-26.463,1.449-39.716c0.022-1.126,0.038-2.283-0.234-3.342
			c-0.273-1.06-3.241-1.078-4.044-1.156c-16.901-1.641-31.011-1.42-48.569,0.012c-0.399,0.033-0.826,0.129-1.119,0.511
			c-0.292,0.382-0.384,1.07-0.022,1.308c-0.412,12.698-0.23,25.434,0.542,38.099c0.116,1.905,0.271,3.908,1.065,5.464
			c15.318,0.657,30.783,1.333,46.105,0.95C446.052,202.831,448.814,203.184,449.036,200.748z"/>
		<g>
			<path style="fill:#FFD075;" d="M413.942,173.319c-1.043-0.689-1.997,0.975-0.975,1.668c1.509,1.022,2.545,2.672,2.476,4.538
				c-0.068,1.846-1.157,3.037-2.382,4.287c0.009,0.005,0.017,0.01,0.026,0.015c-0.661,0.698,0.097,1.891,1.066,1.4
				C419.018,182.759,417.902,175.935,413.942,173.319z"/>
			<path style="fill:#FFD075;" d="M425.083,178.655c-0.315-5.313-3.904-9.904-8.766-11.874c-0.388-0.157-0.876,0.106-1.075,0.438
				c-0.055,0.091-0.09,0.138-0.102,0.239c-0.009,0.08-0.019,0.161-0.028,0.242c-0.035,0.298,0.2,0.699,0.471,0.822
				c4.184,1.899,7.357,5.763,7.53,10.491c0.155,4.23-2.049,7.739-5.298,10.111c-0.212-0.178-0.513-0.223-0.744,0.046
				c-0.296,0.335-0.583,0.677-0.861,1.026c-0.696,0.852,0.15,1.93,1.149,1.489C422.248,189.527,425.396,183.932,425.083,178.655z"/>
			<path style="fill:#FFD075;" d="M423.417,161.483c-1.114-0.579-2.103,1.102-0.986,1.688c6.193,3.247,10.328,9.988,9.758,17.066
				c-0.281,3.487-1.737,6.874-3.935,9.582c-0.981,1.209-2.124,2.309-3.383,3.225c-1.337,0.973-2.949,1.495-4.251,2.47
				c-0.561,0.42-0.478,1.568,0.404,1.492c3.408-0.293,6.828-3.506,8.857-6.057c2.29-2.879,3.81-6.345,4.23-10.011
				C435.023,172.964,430.446,165.133,423.417,161.483z"/>
		</g>
	</g>
	<g>
		<path style="fill:#FFBB39;" d="M464.594,425.011c0.256-26.323-0.535-51.843,0.68-78.14c0.099-2.14,0.181-4.375-0.708-6.324
			c-0.889-1.949-3.511-3.202-5.653-3.16c-41.377,0.811-84.917,0.541-124.169,0.894c-2.381,0.021-4.582,1.515-5.556,3.688
			c-0.974,2.173-0.985,4.638-0.978,7.019c0.064,24.192,0.129,48.384,0.193,72.577c0.005,2.078-0.026,4.315,1.117,6.05
			c2.559,3.883,87.875,2.303,128.312,1.72C461.392,429.284,462.508,427.897,464.594,425.011z"/>
		<g>
			<path style="fill:#FFFFFF;" d="M393.969,370.301c-5.375-11.553-18.633-17.668-30.975-15.621
				c-12.052,1.998-22.152,12.199-24.24,24.186c-1.293,7.424-0.086,15.277,3.811,21.781c3.654,6.097,9.757,10.886,17.046,11.224
				c0.397,0.019,6.604,0.085,9.354-0.268c6.536-0.838,12.462-3.231,17.556-7.439c4.609-3.809,8.149-9.151,9.519-14.998
				C397.525,382.829,396.704,376.18,393.969,370.301z M384.747,397.416c-3.98,4.232-9.291,6.952-14.985,7.968
				c-3.129,0.558-6.517,0.542-9.664,0.128c-1.623-0.214-3.186-0.635-4.79-0.925c-2.822-1.357-5.253-3.76-6.944-6.415
				c-2.853-4.48-4.119-9.791-3.853-15.076c0.504-10.023,7.538-18.818,16.956-21.677c9.163-2.781,20.139,0.694,25.512,9.014
				C392.447,378.9,391.667,390.059,384.747,397.416z"/>
			<path style="fill:#EB9921;" d="M393.969,370.301c-5.189-11.154-17.723-17.215-29.689-15.781c0.006,2.088,0.012,4.175,0.019,6.263
				c8.498-1.375,17.851,2.172,22.68,9.65c5.468,8.467,4.688,19.626-2.232,26.983c-3.98,4.232-9.291,6.952-14.985,7.968
				c-0.9,0.161-1.823,0.261-2.754,0.331c1.039,1.932,2.213,3.81,3.458,5.647c5.941-0.997,11.356-3.316,16.055-7.199
				c4.609-3.809,8.149-9.151,9.519-14.998C397.525,382.829,396.704,376.18,393.969,370.301z"/>
		</g>
		<g>
			<g>
				<path style="fill:#FFFFFF;" d="M453.928,367.351c0,0-0.002,0-0.003,0c0.128-0.438,0.048-0.886,0.056-1.324
					c0.008-0.459,0.006-0.917,0.011-1.376c0.01-0.917,0.03-1.834,0.042-2.751c0.006-0.516,0.014-1.032,0.01-1.548
					c0-0.029-0.078-0.045-0.164-0.049c-0.033-0.006-0.071-0.011-0.121-0.011c-5.484-0.039-10.969-0.05-16.453-0.065
					c-5.457-0.015-10.917-0.009-16.375,0.004c-3.091,0.007-6.185,0.006-9.275,0.035c-0.104,0.001-0.169,0.017-0.197,0.038
					c-0.078,0.004-0.145,0.019-0.146,0.046c-0.038,1.834-0.003,3.669-0.016,5.503c-0.002,0.251,0.002,0.502,0.004,0.752
					c0.002,0.264-0.037,0.532,0.046,0.796c0.009,0.03,0.134,0.035,0.187,0.016c0.012,0.001,0.024,0.003,0.039,0.003
					c1.358,0.045,2.739,0.041,4.105,0.053c1.395,0.012,2.791,0.02,4.187,0.027c2.738,0.015,5.476,0.029,8.214,0.034
					c5.503,0.011,11.007,0.009,16.509-0.018c3.113-0.015,5.723-0.047,8.836-0.057C453.688,367.46,453.893,367.452,453.928,367.351z"
					/>
			</g>
			<g>
				<path style="fill:#FFFFFF;" d="M444.488,388.31c0,0-0.001,0-0.002,0c0.099-0.438,0.038-0.886,0.044-1.324
					c0.006-0.459,0.005-0.917,0.009-1.376c0.008-0.917,0.024-1.834,0.032-2.751c0.005-0.516,0.011-1.032,0.008-1.548
					c0-0.03-0.061-0.045-0.128-0.048c-0.026-0.006-0.055-0.011-0.094-0.011c-4.269-0.039-8.54-0.05-12.811-0.065
					c-4.249-0.015-8.5-0.008-12.749,0.004c-2.407,0.007-4.816,0.006-7.222,0.035c-0.081,0.001-0.132,0.017-0.153,0.038
					c-0.061,0.004-0.113,0.018-0.114,0.046c-0.029,1.834-0.002,3.669-0.012,5.503c-0.001,0.251,0.001,0.502,0.003,0.752
					c0.001,0.264-0.029,0.532,0.036,0.796c0.007,0.03,0.105,0.035,0.145,0.016c0.01,0.001,0.019,0.003,0.03,0.003
					c1.057,0.045,2.133,0.041,3.196,0.053c1.086,0.012,2.173,0.02,3.26,0.027c2.131,0.015,4.263,0.029,6.395,0.034
					c4.285,0.011,8.57,0.009,12.854-0.018c2.424-0.015,4.456-0.047,6.879-0.056C444.302,388.418,444.462,388.41,444.488,388.31z"/>
			</g>
			<g>
				<path style="fill:#FFFFFF;" d="M453.928,409.269c0,0-0.002,0-0.003,0c0.128-0.438,0.048-0.886,0.056-1.324
					c0.008-0.459,0.006-0.917,0.011-1.376c0.01-0.917,0.03-1.834,0.042-2.751c0.006-0.516,0.014-1.032,0.01-1.548
					c0-0.03-0.078-0.045-0.164-0.049c-0.033-0.006-0.071-0.011-0.121-0.011c-5.484-0.039-10.969-0.05-16.453-0.065
					c-5.457-0.015-10.917-0.008-16.375,0.004c-3.091,0.007-6.185,0.006-9.275,0.035c-0.104,0.001-0.169,0.017-0.197,0.037
					c-0.078,0.004-0.145,0.019-0.146,0.046c-0.038,1.834-0.003,3.669-0.016,5.504c-0.002,0.251,0.002,0.502,0.004,0.752
					c0.002,0.264-0.037,0.532,0.046,0.796c0.009,0.03,0.134,0.035,0.187,0.016c0.012,0.001,0.024,0.003,0.039,0.003
					c1.358,0.045,2.739,0.042,4.105,0.053c1.395,0.012,2.791,0.02,4.187,0.027c2.738,0.015,5.476,0.029,8.214,0.034
					c5.503,0.011,11.007,0.009,16.509-0.018c3.113-0.015,5.723-0.047,8.836-0.056C453.688,409.377,453.893,409.369,453.928,409.269z
					"/>
			</g>
		</g>
	</g>
	<g>
		<g>
			<g>
				<path style="fill:#FFFFFF;" d="M304.056,140.28c0.215-10.547,0.464-23.473,0.679-34.02c-13.293-0.499-26.73-0.149-40.009,0.621
					c-0.082,11.043-0.165,22.086-0.247,33.129C277.822,140.326,290.746,141.284,304.056,140.28z"/>
			</g>
			<path style="fill:#A1B0BA;" d="M296.943,117.312c-0.459-1.63-1.728-3.552-3.316-4.26c-1.577-0.702-3.276-1.163-5.119-0.82
				c-2.672,0.497-4.705,3.476-4.863,3.767c-0.618,0.876-0.938,2.061-1.031,2.999c-0.131,1.322,0.151,2.665,0.785,3.816
				c-0.239,0.178-0.475,0.361-0.726,0.526c-0.687,0.45-4.893,3.845-5.518,4.321c-0.618,0.47-2.907,2.461-3.433,3.003
				c-0.551,0.568-1.107,1.132-1.655,1.703c-0.452,0.471-1.106,1.078-1.039,1.788c0.02,0.214,0.148,0.468,0.388,0.509
				c0.685,0.117,1.209-0.283,1.73-0.688c0.62-0.482,3.055-2.394,3.634-2.902c0.598-0.525,2.977-2.417,3.569-2.853
				c0.608-0.446,3.091-2.344,3.718-2.872c0.295-0.248,0.609-0.459,0.909-0.685c0.539,0.41,1.136,0.717,1.795,0.956
				c0.101,0.037,2.053,0.597,2.615,0.598c0.507,0.001,1.685-0.339,2.18-0.456c0.589-0.14,2.919-1.719,3.64-2.439
				C296.738,121.79,297.544,119.45,296.943,117.312z M293.545,120.808c-0.315,0.419-0.84,0.869-1.287,1.181
				c-0.608,0.425-1.297,0.672-2.003,0.908c-1.334,0.446-2.404,0.191-3.492-0.464c-0.505-0.303-0.99-0.69-1.389-1.15
				c-0.572-1.356-0.408-3.018,0.476-4.386c0.59-0.913,1.504-1.674,2.543-2.012c1.055-0.343,2.205-0.276,3.165,0.15
				c0.309,0.137,2.131,1.764,2.276,2.11C294.36,118.41,294.349,119.736,293.545,120.808z"/>
		</g>
		<g>
			<g>
				<path style="fill:#FFFFFF;" d="M304.056,94.644c0.215-10.547,0.464-23.473,0.679-34.02c-13.293-0.499-26.73-0.149-40.009,0.621
					c-0.082,11.043-0.165,22.086-0.247,33.129C277.822,94.69,290.746,95.648,304.056,94.644z"/>
			</g>
			<path style="fill:#A1B0BA;" d="M296.65,74.219c-0.01,0.006-0.426-0.028-0.624-0.051l-4.788-0.696
				c-0.88-0.158-1.758-0.331-2.63-0.531c-0.111-0.302-0.222-0.604-0.341-0.904c-0.312-0.785-0.64-1.567-0.988-2.337
				c-0.688-1.521-1.462-3.059-2.493-4.378c0.002-0.02,0.009-0.04,0.01-0.059c0.004-0.117-0.151-0.178-0.231-0.096
				c-0.015,0.016-0.026,0.038-0.041,0.055c-0.042,0.029-0.077,0.069-0.091,0.121c-0.399,0.511-2.996,6.275-3.596,7.465
				c-0.131,0.009-0.263,0.019-0.391,0.027c-0.42,0.025-6.708,0.874-8.245,1.296c-0.206,0.057-0.127,0.333,0.066,0.326
				c1.095,1.103,2.2,2.194,3.313,3.279c0.551,0.538,2.457,2.397,2.457,2.397c0.082,0.08,0.167,0.152,0.25,0.229
				c-0.031,0.221-0.046,0.447-0.068,0.663c-0.034,0.332-0.07,0.665-0.109,0.996c-0.094,0.785-0.206,1.568-0.334,2.348
				c-0.241,1.458-0.544,2.904-0.902,4.337c-0.046,0.182,0.198,0.257,0.281,0.119c0.012-0.002,0.022,0.003,0.034-0.002
				c1.557-0.674,7.219-3.793,7.456-3.925c2.489,1.28,4.973,2.568,7.47,3.831c0.028,0.014,0.052,0.002,0.078,0.006l0.064,0.034
				l-0.005-0.03c0.17-0.025,0.269-0.229,0.154-0.356c-0.177-1.437-0.413-2.851-0.72-4.268c-0.16-0.738-0.329-1.475-0.508-2.209
				c-0.107-0.438-0.189-0.946-0.333-1.413c0.993-0.879,1.982-1.758,2.926-2.692c0.542-0.536,1.083-1.072,1.624-1.608
				c0.263-0.26,0.526-0.521,0.789-0.781c0.268-0.265,0.618-0.526,0.802-0.856C297.108,74.336,296.866,74.105,296.65,74.219z"/>
		</g>
	</g>
	<g>
		<path style="fill:#FFBB39;" d="M443.367,93.123c-0.244-0.965-1.054-1.909-2.049-1.909c-25.539,0.009-50.081,0.82-76.682,0.696
			c-1.114-0.005-2.28-0.237-3.167,0.436c-0.887,0.674-1.159,1.619-1.184,2.733c-0.243,10.749-0.3,21.415-0.543,32.164
			c-0.506,0.681-0.208,1.716,0.434,2.271c0.641,0.555,1.517,0.74,2.357,0.855c1.176,0.161,2.365,0.214,3.551,0.18
			c-3.603,3.871-6.507,8.844-8.683,13.443c7.862-4.738,15.626-9.637,23.299-14.675c19.537-1.203,39.217-0.374,58.805-0.795
			c0.696-0.015,1.47,0.218,1.966-0.271c0.496-0.49,0.664-0.836,0.697-1.532c0.492-10.411-1.014-20.424,1.051-30.64
			C443.414,95.103,443.611,94.088,443.367,93.123z"/>
		<g>
			<path style="fill:#FFFFFF;" d="M384.824,112.482c1.165-2.423,0.13-5.669-2.222-6.971c-2.352-1.302-5.652-0.456-7.087,1.817
				C371.46,113.751,381.554,119.283,384.824,112.482z"/>
			<path style="fill:#FFFFFF;" d="M405.715,112.482c1.165-2.423,0.13-5.669-2.222-6.971c-2.352-1.302-5.652-0.456-7.087,1.817
				C392.351,113.751,402.445,119.283,405.715,112.482z"/>
			<path style="fill:#FFFFFF;" d="M426.606,112.482c1.165-2.423,0.13-5.669-2.222-6.971c-2.352-1.302-5.652-0.456-7.087,1.817
				C413.242,113.751,423.336,119.283,426.606,112.482z"/>
		</g>
	</g>
	<g>
		<g>
			<path style="fill:#A1B0BA;" d="M43.774,290.538c0.937,4.108,2.156,8.151,3.645,12.092c1.515-0.45,2.999-0.895,4.514-1.345
				c-0.489-2.416-0.706-4.978-1.196-7.394c4.507-2.718,6.442-9.453,4.139-14.186c-2.303-4.733-8.454-7.171-13.374-5.302
				s-7.9,7.777-6.479,12.845c1.796-0.672,3.86-1.216,5.656-1.888c-0.397-1.77-0.164-3.754,1.126-5.03
				c1.29-1.276,3.29-1.799,5.026-1.272c1.736,0.527,3.12,2.102,3.372,3.899c0.242,1.725-0.523,3.486-1.727,4.745
				C47.272,288.961,45.414,289.949,43.774,290.538z"/>
			<path style="fill:#A1B0BA;" d="M48.887,305.43c-0.331,0.481-0.456,1.085-0.415,1.668c0.091,1.306,1.056,2.514,2.316,2.868
				c1.261,0.354,2.726-0.187,3.434-1.289c0.708-1.102,0.581-2.677-0.31-3.636c-0.633-0.681-1.617-1-2.533-0.88
				C50.575,304.265,49.355,304.751,48.887,305.43z"/>
		</g>
		<g>
			<path style="fill:#A1B0BA;" d="M143.067,207.632c-0.208,2.557-0.592,5.1-1.148,7.604c-0.952-0.14-1.885-0.279-2.837-0.419
				c0.085-1.499-0.006-3.062,0.079-4.56c-2.952-1.247-4.702-5.138-3.725-8.191c0.977-3.052,4.473-5.056,7.601-4.356
				c3.128,0.7,5.436,4.002,5.019,7.18c-1.141-0.249-2.432-0.398-3.573-0.647c0.086-1.101-0.227-2.277-1.115-2.934
				c-0.888-0.657-2.139-0.799-3.14-0.331c-1.001,0.468-1.698,1.537-1.694,2.642c0.004,1.061,0.618,2.056,1.452,2.71
				C140.822,206.985,142.028,207.419,143.067,207.632z"/>
			<path style="fill:#A1B0BA;" d="M141.278,217.051c0.241,0.261,0.369,0.615,0.395,0.969c0.058,0.795-0.418,1.607-1.147,1.929
				c-0.729,0.323-1.659,0.124-2.181-0.479c-0.522-0.603-0.583-1.563-0.129-2.218c0.323-0.466,0.888-0.743,1.45-0.75
				C140.16,216.495,140.937,216.682,141.278,217.051z"/>
		</g>
	</g>
</g>
</svg>
